<?xml version="1.0" encoding="UTF-8" standalone="no"?>
<!DOCTYPE svg PUBLIC "-//W3C//DTD SVG 1.1//EN" "http://www.w3.org/Graphics/SVG/1.1/DTD/svg11.dtd">
<svg width="100%" height="100%" viewBox="0 0 160 59" version="1.1" xmlns="http://www.w3.org/2000/svg" xmlns:xlink="http://www.w3.org/1999/xlink" xml:space="preserve" style="fill-rule:evenodd;clip-rule:evenodd;stroke-linejoin:round;stroke-miterlimit:1.41421;">
    <g transform="matrix(1,0,0,1,-571.649,-18.7733)">
        <g transform="matrix(0.74759,0,0,0.74759,347.455,12.548)">
            <path d="M418.048,10.886L419.031,42.729L425.199,62.511L418.837,60.67L419.406,84.971L438.247,85.768L435.925,55.55L448.967,86.122L465.001,79.744L450.333,48.934C450.333,48.934 464.19,44.322 464.294,31.599C464.4,18.553 456.963,10.675 444.332,10.65C434.316,10.631 418.048,10.886 418.048,10.886ZM434.619,24.631L435.209,39.072C435.209,39.072 449.397,38.518 449.397,31.458C449.397,22.594 434.619,24.631 434.619,24.631Z" style="fill:rgb(236,236,236);"/>
            <g transform="matrix(1,0,0,1,-12.783,0.741182)">
                <path d="M472.958,10.294L473.04,14.209C480.082,24.403 481.218,34.115 473.641,43.116L474.163,68.228L479.905,79.67L474.444,81.755L474.52,85.425L525.314,85.851L525.775,66.252L492.181,66.508L491.173,9.679L472.958,10.294Z" style="fill:rgb(236,236,236);"/>
            </g>
            <g transform="matrix(0.998955,-0.0456977,0.0456977,0.998955,3.72017,19.2514)">
                <path d="M387.799,13.078L388.345,34.193L408.086,34.032L407.596,13.094L387.799,13.078Z" style="fill:rgb(236,236,236);"/>
            </g>
            <g transform="matrix(0.968198,-0.250187,0.250187,0.968198,10.0598,99.5047)">
                <path d="M408.011,41.895L409.606,64.733L402.287,59.92L386.171,59.855L385.727,41.895L408.011,41.895Z" style="fill:rgb(236,236,236);"/>
            </g>
            <g transform="matrix(1,0,0,1,-19.4606,20.6668)">
                <path d="M377.397,18.476L377.942,63.322L435.024,65.223L435,46.961L394.843,46.297L394.258,19.128L377.397,18.476Z" style="fill:rgb(236,236,236);"/>
            </g>
            <path d="M374.634,14.297L356.828,15.162L356.684,9.508L374.328,8.327L374.634,14.297Z" style="fill:rgb(236,236,236);"/>
            <g transform="matrix(1,0,0,1,14.3235,1.56184)">
                <path d="M287.898,11.46L338.831,15.294L368.743,14.216L370.596,36.168L337.842,35.198L336.572,83.548L315.599,82.412L317.073,34.751L285.566,32.157L287.898,11.46Z" style="fill:rgb(236,236,236);"/>
            </g>
        </g>
    </g>
</svg>
